<?xml version="1.0" encoding="utf-8"?>
<!-- Generator: Adobe Illustrator 26.2.0, SVG Export Plug-In . SVG Version: 6.00 Build 0)  -->
<svg version="1.1" id="Artwork" xmlns="http://www.w3.org/2000/svg" xmlns:xlink="http://www.w3.org/1999/xlink" x="0px" y="0px"
	 viewBox="0 0 300 80.5" style="enable-background:new 0 0 300 80.5;" xml:space="preserve">
<style type="text/css">
	.st0{fill:none;}
	.st1{fill:#0F1C3D;}
</style>
<path class="st0" d="M138.7,38.4c-2.8-0.1-5.2,2-5.5,4.8h10.9C144.1,40.8,142.5,38.4,138.7,38.4z"/>
<path class="st0" d="M115,33.2c0-2.7-1.7-4.4-5.1-4.4h-4.8v8.8h4.9C113.1,37.6,115,35.9,115,33.2z"/>
<path class="st0" d="M110.7,43.3H105v9.3h5.6c3.3,0,5.3-1.7,5.3-4.6S114.2,43.3,110.7,43.3z"/>
<path class="st1" d="M116.6,40.1c3.1-1.2,5.2-4.2,5.1-7.6c0-5.5-3.9-9.5-10.7-9.5H98.3v35.2h13.6c6.6,0,10.9-4.1,10.9-9.9
	C122.9,44.5,120.4,41.1,116.6,40.1z M105.1,28.8h4.8c3.3,0,5.1,1.7,5.1,4.4s-1.9,4.4-5,4.4h-5L105.1,28.8z M110.6,52.6H105v-9.3h5.7
	c3.4,0,5.2,1.9,5.2,4.7C116,50.8,113.9,52.6,110.6,52.6z"/>
<path class="st1" d="M138.6,33.1c-6.3,0-12,5.1-12,12.9c0,8.3,5.9,13.1,12.6,13.1c6,0,9.9-3.5,11.1-7.7l-5.5-1.6
	c-0.8,2.4-3.1,3.9-5.6,3.7c-3.2,0.1-6-2.3-6.2-5.6h17.5c0-0.1,0.1-1.1,0.1-2C150.7,37.9,146.2,33.1,138.6,33.1z M133.2,43.3
	c0.2-2.8,2.7-4.9,5.5-4.8c3.8,0,5.4,2.4,5.5,4.8H133.2z"/>
<path class="st1" d="M168.4,33.2c-2.8-0.1-5.5,1.3-7.1,3.7v-3.1H155v24.4h6.6v-14c0-2.8,1.7-5.1,4.6-5.1c3.2,0,4.5,2.1,4.5,4.9v14.3
	h6.6V42.9C177.3,37.5,174.5,33.2,168.4,33.2z"/>
<path class="st1" d="M193,53c-3.4,0-6.3-2.5-6.3-6.9s2.8-6.9,6.2-6.9c2.6-0.1,4.8,1.6,5.4,4.1l5.9-2c-1-4.1-4.8-8.3-11.5-8.3
	c-6.9-0.1-12.6,5.4-12.7,12.3c0,0.2,0,0.4,0,0.6c-0.1,7,5.4,12.8,12.4,12.9c0.2,0,0.4,0,0.5,0c5.3,0.2,10-3.2,11.4-8.3l-5.8-1.9
	C198,51.3,195.7,53,193,53z"/>
<path class="st1" d="M221.6,33.2c-2.5-0.1-4.9,0.9-6.7,2.7V22.3h-6.6v36h6.6V43.9c0.1-2.7,1.8-4.8,4.6-4.8c3.2,0,4.5,2.1,4.5,4.9
	v14.3h6.6V42.9C230.7,37.5,227.8,33.2,221.6,33.2z"/>
<path class="st1" d="M250,38.7l-5.3-1.1c-3-0.6-4.5-2.6-4.5-5.1c0-3.3,2.8-5.9,6.8-5.9c3.7-0.2,6.9,2.4,7.5,6l4.4-1.5
	c-0.8-3.8-4-8.7-11.9-8.7c-6.5,0-11.6,4.9-11.6,10.5c0,5.3,3.6,8.5,8.6,9.6l5,1.1c3.5,0.8,5.3,2.9,5.3,5.5c0,3.1-2.4,5.6-7.3,5.6
	c-4.4,0.3-8.2-3.1-8.4-7.5l0,0l-4.7,1.5c0.6,5,4.7,10.5,13.2,10.5c7.5,0,12.2-4.9,12.2-10.4C259.1,43.7,255.8,40,250,38.7z"/>
<path class="st1" d="M274,54.7c-3.9,0-7.3-2.9-7.3-8.4s3.5-8.4,7.3-8.4c3.1-0.1,5.8,2,6.4,5.1l4.2-1.8c-1-3.6-4.3-7.6-10.6-7.6
	c-6.8,0-12,5.2-12,12.7c0,7.3,5.1,12.7,12.1,12.7c4.9,0.2,9.2-2.9,10.8-7.5l-4.1-1.8C279.9,52.8,277.1,54.9,274,54.7z"/>
<path class="st1" d="M291.6,22c-1.8,0-3.3,1.6-3.3,3.4s1.6,3.3,3.4,3.3s3.3-1.5,3.3-3.4C295,23.5,293.5,22,291.6,22L291.6,22z"/>
<rect x="289.3" y="34.4" class="st1" width="4.6" height="23.9"/>
<path class="st1" d="M52.1,31.6c2.5-2.5,3.9-5.9,3.9-9.4h-4.8c0,2.3-0.9,4.4-2.5,6l-6.1,6.1l-6.3-6.4c-1.4-1.6-2.2-3.6-2.2-5.7h-4.8
	c0,3.5,1.4,6.9,3.9,9.4l0,0l6,6l-6.1,6c-2.5,2.5-3.9,5.9-3.9,9.4v7.4h5.3V57H40v3.5h5.3V57h5.3v3.5H56v-7.4c0-3.5-1.4-6.9-3.9-9.4
	l-4.4-4.4l-3.4,3.4l4.4,4.4c1.4,1.4,2.3,3.2,2.5,5.1h-17c0.2-1.9,1.1-3.7,2.5-5.1L52.1,31.6z"/>
<path class="st1" d="M42.5,78C21.8,78,5,61.2,5,40.5S21.8,3,42.5,3S80,19.8,80,40.5l0,0C80,61.2,63.2,78,42.5,78z M42.5,7.2
	C24.1,7.2,9.2,22.1,9.2,40.5s14.9,33.3,33.3,33.3s33.3-14.9,33.3-33.3C75.7,22.1,60.8,7.3,42.5,7.2z"/>
</svg>
